<svg width="50" height="51" viewBox="0 0 50 51" fill="none" xmlns="http://www.w3.org/2000/svg">
<rect y="0.964844" width="50" height="50" rx="25" fill="black"/>
<path d="M33.2473 13.2235C33.2473 13.0246 33.1683 12.8339 33.0277 12.6933C32.8871 12.5527 32.6964 12.4737 32.4975 12.4737H28.7487C26.861 12.3797 25.0129 13.0366 23.608 14.301C22.2032 15.5653 21.3559 17.3344 21.2512 19.2215V23.2702H17.5024C17.3036 23.2702 17.1129 23.3492 16.9723 23.4898C16.8317 23.6304 16.7527 23.8211 16.7527 24.0199V27.9186C16.7527 28.1175 16.8317 28.3082 16.9723 28.4488C17.1129 28.5894 17.3036 28.6684 17.5024 28.6684H21.2512V38.7151C21.2512 38.9139 21.3302 39.1046 21.4708 39.2452C21.6114 39.3859 21.8021 39.4648 22.001 39.4648H26.4995C26.6983 39.4648 26.889 39.3859 27.0296 39.2452C27.1702 39.1046 27.2492 38.9139 27.2492 38.7151V28.6684H31.1779C31.3447 28.6708 31.5074 28.6175 31.6405 28.517C31.7736 28.4166 31.8694 28.2746 31.9127 28.1136L32.9924 24.2149C33.0222 24.1041 33.0262 23.9879 33.0041 23.8753C32.982 23.7628 32.9343 23.6568 32.8648 23.5655C32.7952 23.4743 32.7057 23.4002 32.603 23.349C32.5004 23.2978 32.3873 23.2708 32.2726 23.2702H27.2492V19.2215C27.2865 18.8503 27.4608 18.5064 27.7381 18.2569C28.0154 18.0073 28.3757 17.8701 28.7487 17.8719H32.4975C32.6964 17.8719 32.8871 17.7929 33.0277 17.6523C33.1683 17.5117 33.2473 17.321 33.2473 17.1222V13.2235Z" fill="white"/>
</svg>
